PathFileType	4	(X/Y/Z)	C:\Users\Basilio\Documents\Thesis Gigler\squatting_fais\c3dfiles\047\SLS_pre_back2\markers_experimental.trc
DataRate	CameraRate	NumFrames	NumMarkers	Units	OrigDataRate	OrigDataStartFrame	OrigNumFrames
200.000000	200.000000	4	62	mm	200.000000	161	1295
Frame#	Time	FHD			LBHD			RBHD			C7			T10			CLAV			LSHO			LUUPA			LMUPA			LDUPA			LLEP			LMEP			LRAD			LUL			LRFIN			RSHO			RUPA1			RMUPA			RDUPA			RLEP			RMEP			RUL			RUFIN			LASI			RASI			USACR			LSACR			RSACR			LTHI1			LTHI2			LTHI3			LTHI4			LLFC			LMFC			LTIB1			LTIB2			LTIB3			LTIB4			LLMAL			LMMAL			LMT1			LMT2			LMT5			RTHI			RTHI2			RTHI3			RTHI4			RLFC			RMFC			RTIB1			RTIB2			RTIB3			RTIB4			RLMAL			RHEE			RMT1			RMT2			RMT5			RMMAL			RRAD			*60			*61			
		X1	Y1	Z1	X2	Y2	Z2	X3	Y3	Z3	X4	Y4	Z4	X5	Y5	Z5	X6	Y6	Z6	X7	Y7	Z7	X8	Y8	Z8	X9	Y9	Z9	X10	Y10	Z10	X11	Y11	Z11	X12	Y12	Z12	X13	Y13	Z13	X14	Y14	Z14	X15	Y15	Z15	X16	Y16	Z16	X17	Y17	Z17	X18	Y18	Z18	X19	Y19	Z19	X20	Y20	Z20	X21	Y21	Z21	X22	Y22	Z22	X23	Y23	Z23	X24	Y24	Z24	X25	Y25	Z25	X26	Y26	Z26	X27	Y27	Z27	X28	Y28	Z28	X29	Y29	Z29	X30	Y30	Z30	X31	Y31	Z31	X32	Y32	Z32	X33	Y33	Z33	X34	Y34	Z34	X35	Y35	Z35	X36	Y36	Z36	X37	Y37	Z37	X38	Y38	Z38	X39	Y39	Z39	X40	Y40	Z40	X41	Y41	Z41	X42	Y42	Z42	X43	Y43	Z43	X44	Y44	Z44	X45	Y45	Z45	X46	Y46	Z46	X47	Y47	Z47	X48	Y48	Z48	X49	Y49	Z49	X50	Y50	Z50	X51	Y51	Z51	X52	Y52	Z52	X53	Y53	Z53	X54	Y54	Z54	X55	Y55	Z55	X56	Y56	Z56	X57	Y57	Z57	X58	Y58	Z58	X59	Y59	Z59	X60	Y60	Z60	X61	Y61	Z61	X62	Y62	Z62	

162	0.805	-160.7918853759766	1740.866821289063	-1108.8271484375	-338.1788024902344	1699.993286132813	-1131.40673828125	-314.0117187500001	1710.128540039063	-984.8449707031252	-353.4081726074219	1522.092529296875	-1054.950561523438	-370.1845703125001	1212.728515625	-1027.756469726563	-202.6949768066407	1468.241333007813	-1086.152221679688	-284.9531250000001	1479.353881835938	-1238.435668945313	-222.2238769531251	1321.812622070313	-1330.34521484375	-177.482421875	1346.999877929688	-1331.657470703125	-160.5902404785157	1290.204345703125	-1341.34521484375	-89.02581787109376	1275.323486328125	-1346.519897460938	-102.0051040649414	1229.5703125	-1270.210815429688	81.12457275390626	1391.426025390625	-1193.677368164063	120.4496383666992	1327.316040039063	-1186.5888671875	170.7681427001953	1406.032592773438	-1185.436767578125	-233.4395751953126	1501.77734375	-922.8318481445315	-127.9232025146485	1366.996826171875	-827.035095214844	-90.7258758544922	1389.344116210938	-849.9732055664065	-64.4199905395508	1337.56396484375	-834.0417480468752	8.518567085266115	1326.798095703125	-854.091003417969	-20.66786193847657	1257.40966796875	-901.9024658203127	167.5957946777344	1351.963012695313	-1063.623779296875	138.5491638183594	1429.316040039063	-1104.728637695313	-205.3138580322266	983.1423339843752	-1125.050170898438	-186.7015228271485	1004.88037109375	-896.3323364257815	-376.4591064453126	1079.79248046875	-1008.128723144531	-384.7711791992189	1045.964721679688	-1032.762084960938	-378.6358642578126	1051.573852539063	-974.852966308594	-295.4663696289063	828.9412841796877	-1182.411010742188	-261.5101013183594	751.5421752929689	-1179.847412109375	-212.4629669189454	755.0094604492189	-1169.074462890625	-290.8958435058594	698.4205322265626	-1169.794555664063	-314.8992309570313	528.6508789062501	-1125.111083984375	-282.1531066894532	523.3499755859376	-1004.510864257813	-286.7284545898438	345.4989624023438	-1026.147338867188	-300.1073608398438	296.6648559570313	-1098.003540039063	-282.2880554199219	295.2994689941407	-1053.95849609375	-297.7017822265626	220.6357727050782	-1019.94140625	-352.3554077148438	125.2734298706055	-1059.58935546875	-329.2218933105469	140.0901489257813	-973.7559204101565	-209.8069152832032	63.59409332275392	-991.7225341796877	-209.8751068115235	60.27611923217775	-1036.977416992188	-259.3477783203126	49.74671936035158	-1080.68994140625	-238.8919067382813	828.838806152344	-788.7641601562502	-189.9846801757813	783.338073730469	-783.989685058594	-160.9029083251953	788.5779418945315	-797.4805908203127	-200.2353210449219	700.4250488281251	-774.9727172851565	-176.773193359375	569.8355102539064	-786.593200683594	-173.5150756835938	537.2132568359376	-913.8447875976565	-262.7255554199219	480.8507080078126	-786.508239746094	-359.1657104492188	522.6558837890626	-752.3969726562501	-344.7154846191407	478.1110229492189	-758.4490356445314	-388.9690246582032	447.8430786132814	-785.4815673828127	-551.6699218750001	468.6857910156251	-753.2172851562501	-581.8072509765626	512.1212768554689	-815.9321289062502	-593.7521362304689	304.5998229980469	-803.7195434570315	-593.9344482421876	304.7912597656251	-757.9171752929689	-628.4552612304689	358.5983276367188	-714.8346557617189	nan	nan	nan	nan	nan	nan	nan	nan	nan	nan	nan	nan	
163	0.8100000000000001	-160.9047241210938	1740.769775390625	-1108.768798828125	-338.4365234375001	1700.284912109375	-1131.250366210938	-314.0259094238282	1710.09033203125	-984.7783203125002	-353.4044189453126	1522.036865234375	-1054.953491210938	-370.1096496582032	1212.642578125	-1027.7548828125	-202.8350982666016	1468.133422851563	-1086.117919921875	-284.9260864257813	1479.30908203125	-1238.427612304688	-222.2661132812501	1321.70458984375	-1330.297485351563	-177.653549194336	1346.927124023438	-1331.611450195313	-160.6001586914063	1290.1845703125	-1341.294677734375	-89.02629852294923	1275.268310546875	-1346.48583984375	-101.9735717773438	1229.513671875	-1270.010620117188	81.09008789062501	1391.39892578125	-1193.642456054688	120.4271087646485	1327.292236328125	-1186.511596679688	170.7597961425782	1406.035034179688	-1185.43408203125	-233.4137878417969	1501.642700195313	-922.8040771484377	-127.9202194213867	1366.931884765625	-827.1130981445315	-90.82859039306642	1389.234619140625	-849.9133300781252	-64.58132934570314	1337.371337890625	-833.8027954101565	8.503706932067873	1326.651489257813	-854.050720214844	-20.66583633422852	1257.358520507813	-901.9385986328127	167.5588684082032	1351.9443359375	-1063.620849609375	138.5420989990235	1429.3154296875	-1104.707763671875	-205.3083801269532	983.0559692382815	-1124.977294921875	-186.7069549560547	1004.800415039063	-896.346618652344	-376.4779968261719	1079.72119140625	-1008.130920410156	-384.8038940429689	1045.892211914063	-1032.7900390625	-378.6401367187501	1051.5458984375	-974.861511230469	-295.3114929199219	828.8874511718752	-1182.38427734375	-261.3663635253907	751.5439453125001	-1179.8134765625	-212.3153533935547	754.9849853515626	-1169.105834960938	-290.7672729492188	698.3527832031251	-1169.782592773438	-314.6925354003907	528.6361083984376	-1125.088745117188	-282.0428771972657	523.3513793945314	-1004.561950683594	-286.7224426269532	345.4547729492188	-1026.093994140625	-299.8648376464844	296.5784301757813	-1097.98095703125	-282.2184448242188	295.2817077636719	-1053.769409179688	-297.7211608886719	220.6338195800782	-1019.781005859375	-352.3157653808594	125.2341384887696	-1059.53076171875	-329.3305664062501	139.9569091796875	-973.6565551757815	-209.9030914306641	63.57289505004884	-991.6691894531252	-209.2500915527344	60.24261856079103	-1036.994018554688	-259.3150939941407	49.79808807373048	-1080.685546875	-238.8865814208985	828.819763183594	-788.7583618164065	-189.9934387207032	783.262878417969	-784.0042724609377	-160.9598083496094	788.510681152344	-797.4060668945315	-200.2597961425782	700.3903808593751	-775.0695800781252	-176.8000640869141	569.7606811523439	-786.5979003906252	-173.6303253173828	537.1691894531251	-913.7823486328127	-262.7317504882813	480.8399353027345	-786.4760742187502	-359.1808471679688	522.7604980468751	-752.4523925781251	-344.7553405761719	478.1361083984376	-758.4472656250001	-389.0429077148439	447.8949279785157	-785.3747558593752	-551.7285156250001	468.8462829589845	-753.2168579101564	-581.7008056640626	512.3093261718751	-815.930358886719	-593.8034057617189	304.6102600097657	-803.693298339844	-593.9800415039064	304.9053649902344	-758.0134277343751	-628.4599609375001	358.7455444335938	-714.7332153320314	nan	nan	nan	nan	nan	nan	nan	nan	nan	nan	nan	nan	
164	0.8150000000000001	-160.9114837646485	1740.6689453125	-1108.721313476563	-338.4114074707032	1700.258056640625	-1131.21826171875	-313.8485107421876	1710.084838867188	-984.753112792969	-353.4494934082032	1521.924682617188	-1054.899780273438	-370.1907958984376	1212.61767578125	-1027.74267578125	-202.6912384033204	1468.121337890625	-1086.204956054688	-284.9602661132813	1479.283203125	-1238.420166015625	-222.3311767578126	1321.67822265625	-1330.194580078125	-177.5267486572266	1346.832153320313	-1331.610107421875	-160.5767517089844	1290.127563476563	-1341.322143554688	-89.09337615966798	1275.196899414063	-1346.41796875	-102.2457809448242	1229.516235351563	-1270.578002929688	81.04006958007814	1391.377197265625	-1193.644287109375	120.411003112793	1327.256591796875	-1186.477905273438	170.7622833251953	1406.033081054688	-1185.436767578125	-233.4779357910157	1501.57275390625	-922.6933593750002	-127.8906021118164	1366.873413085938	-827.2089843750002	-90.91860961914064	1389.119262695313	-849.8312988281252	-64.41921234130861	1337.494995117188	-833.6538085937502	8.479994773864748	1326.545043945313	-853.952087402344	-20.76843452453614	1257.236328125	-901.9731445312502	167.554916381836	1351.926025390625	-1063.611572265625	138.5106506347657	1429.302856445313	-1104.72021484375	-205.262191772461	983.0556640625002	-1124.954223632813	-186.7081298828125	1004.750610351563	-896.3618164062502	-376.5109252929688	1079.674438476563	-1008.150085449219	-384.7938537597657	1045.873168945313	-1032.787109375	-378.6446533203126	1051.47900390625	-974.8730468750002	-295.2602233886719	828.810974121094	-1182.421875	-261.2583312988282	751.5382690429689	-1179.859619140625	-212.2510528564454	754.9301147460939	-1169.09130859375	-290.6758728027344	698.3274536132814	-1169.738159179688	-314.4738769531251	528.5665893554689	-1125.082885742188	-281.9859924316407	523.3231201171876	-1004.489929199219	-286.7993774414063	345.3591613769532	-1025.764038085938	-299.8082580566407	296.5074157714844	-1097.889038085938	-282.2226257324219	295.4181823730469	-1053.723510742188	-297.7763061523438	220.5613861083985	-1019.624572753906	-352.3245849609376	125.2991180419922	-1059.5224609375	-329.4221191406251	139.8851013183594	-973.557556152344	-209.9759368896485	63.4879608154297	-991.5882568359377	-209.2032012939454	60.27920150756837	-1036.962158203125	-259.2792358398438	49.81906509399415	-1080.599243164063	-238.9911346435547	828.7048950195315	-788.740173339844	-190.0500640869141	783.2023925781252	-784.0333251953127	-160.8625640869141	788.4283447265627	-797.5103759765627	-200.3221435546876	700.3328857421876	-775.0722656250002	-176.8050994873047	569.7310180664064	-786.5716552734377	-173.6123352050782	537.0955810546876	-913.7698364257815	-262.7286376953126	480.8436584472657	-786.449645996094	-359.1664123535157	522.7658081054689	-752.4550781250001	-344.7284851074219	478.1497497558595	-758.4379882812501	-389.0696716308595	447.9705810546876	-785.3920898437502	-551.7496337890626	468.9405822753907	-753.2349853515626	-581.6661987304689	512.3370361328126	-815.9375000000002	-593.8837280273439	304.6198425292969	-803.6077880859377	-594.1416625976564	305.0730895996094	-757.5258789062501	-628.5123901367189	358.8961486816407	-714.7124023437501	nan	nan	nan	nan	nan	nan	nan	nan	nan	nan	nan	nan	
165	0.8200000000000001	-160.8648529052735	1740.625732421875	-1108.682983398438	-338.1410217285157	1699.912109375	-1131.225830078125	-313.9302368164063	1710.034301757813	-984.6850585937502	-353.5378112792969	1521.864501953125	-1054.830932617188	-370.2046203613282	1212.509399414063	-1027.703369140625	-202.7574157714844	1468.072143554688	-1086.190795898438	-285.0562744140626	1479.263671875	-1238.374145507813	-222.3174743652344	1321.638916015625	-1330.137084960938	-177.5861968994141	1346.768676757813	-1331.543579101563	-160.5920715332032	1289.959716796875	-1341.271484375	-89.10376739501955	1275.12158203125	-1346.375244140625	-102.1524963378907	1229.20947265625	-1269.34326171875	81.0251922607422	1391.355102539063	-1193.630981445313	120.286117553711	1327.228149414063	-1186.40966796875	170.7507629394532	1406.048095703125	-1185.435180664063	-233.3915557861329	1501.535034179688	-922.7901000976565	-127.9136657714844	1366.734252929688	-827.1888427734377	-90.92539215087892	1388.949584960938	-849.817321777344	-64.4347610473633	1337.401000976563	-833.7532348632815	8.380931854248049	1326.338134765625	-853.8764648437502	-20.98363113403321	1257.155151367188	-901.8933105468752	167.5103759765625	1351.876831054688	-1063.60107421875	138.5315551757813	1429.300170898438	-1104.729370117188	-205.2743072509766	983.0535278320315	-1125.010864257813	-186.7450561523438	1004.672607421875	-896.3647460937502	-376.5144348144532	1079.564697265625	-1008.190246582031	-384.816619873047	1045.7880859375	-1032.826171875	-378.6681823730469	1051.396728515625	-974.892761230469	-295.1942443847657	828.7307739257815	-1182.392822265625	-261.1153259277344	751.5039672851564	-1179.836059570313	-212.071517944336	754.9273681640626	-1169.078491210938	-290.5473632812501	698.2967529296876	-1169.738159179688	-314.3324279785157	528.5062866210939	-1125.063232421875	-282.0544128417969	523.3007202148439	-1004.440490722656	-286.7323913574219	345.3685302734376	-1025.8095703125	-299.5184020996094	296.5397949218751	-1097.92578125	-282.3559570312501	295.7008972167969	-1053.51708984375	-297.7942810058594	220.5283203125001	-1019.494873046875	-352.3174438476563	125.2823333740235	-1059.431030273438	-329.3895874023438	139.8497619628907	-973.4644775390627	-210.0076751708985	63.41362762451173	-991.6452636718752	-209.1580657958985	60.49818038940431	-1036.894653320313	-259.2995605468751	49.85077285766603	-1080.595703125	-239.0220336914063	828.6175537109377	-788.8084106445315	-190.0295104980469	783.169128417969	-784.1053466796877	-161	788.3726806640627	-797.364929199219	-200.3140106201172	700.2508544921876	-775.0866699218752	-176.8509979248047	569.6527099609376	-786.5200805664065	-173.8269958496094	537.4877929687501	-913.6685791015627	-262.7472839355469	480.803680419922	-786.3650512695315	-359.1974182128907	522.8034667968751	-752.3801879882814	-344.7226257324219	478.1442260742189	-758.3964233398439	-389.0668029785157	447.9713134765626	-785.3686523437502	-551.7227172851564	469.0023193359376	-753.1868286132814	-581.6890258789064	512.3247680664064	-816.024841308594	-593.9821166992189	304.5668029785157	-803.5706176757815	-594.1824340820314	305.2867736816407	-757.8142089843751	-628.5652465820314	358.9921264648438	-714.6787719726564	nan	nan	nan	nan	nan	nan	nan	nan	nan	nan	nan	nan	
